<?xml version="1.0" encoding="UTF-8"?>
<svg xmlns="http://www.w3.org/2000/svg" xmlns:xlink="http://www.w3.org/1999/xlink" viewBox="0 0 8525.38 1417.82">
  <defs>
    <style>
      .cls-1 {
        fill: #fff;
      }

      .cls-2 {
        fill: url(#radial-gradient);
      }

      .cls-3 {
        clip-path: url(#clippath);
      }

      .cls-4 {
        fill: none;
      }
    </style>
    <clipPath id="clippath">
      <polyline class="cls-4" points="148.37 508.89 352.48 252.34 834.41 326.04 922.29 817.89 696.92 1033.34 348.23 1033.34 169.63 823.56 148.37 508.89 148.37 508.89 148.37 508.89 148.37 508.89 148.37 508.89"/>
    </clipPath>
    <radialGradient id="radial-gradient" cx="516.8" cy="648.39" fx="516.8" fy="648.39" r="371.67" gradientUnits="userSpaceOnUse">
      <stop offset="0" stop-color="#eee338"/>
      <stop offset=".03" stop-color="#edda33"/>
      <stop offset=".11" stop-color="#ecc827"/>
      <stop offset=".19" stop-color="#ebbc21"/>
      <stop offset=".28" stop-color="#ebb91f"/>
      <stop offset=".67" stop-color="#df8438"/>
      <stop offset=".89" stop-color="#d85f36"/>
      <stop offset="1" stop-color="#da3a35"/>
    </radialGradient>
  </defs>
  <g id="Layer_3" data-name="Layer 3">
    <g class="cls-3">
      <rect class="cls-2" x="145.14" y="276.72" width="743.33" height="743.33"/>
    </g>
  </g>
  <g id="Layer_1" data-name="Layer 1">
    <path class="cls-1" d="m872.21,1035.49c7.78,7.78,12.96,19.44,12.96,31.1,0,25.92-20.74,46.66-46.66,46.66-12.96,0-23.33-5.18-32.4-14.26l-55.73-58.32c-71.28,45.36-152.93,69.98-234.58,69.98-226.8,0-451.01-189.22-451.01-462.67s224.21-462.67,451.01-462.67,449.71,189.22,449.71,462.67c0,138.67-57.02,255.31-142.56,336.96l49.25,50.54Zm-196.99-71.28l-130.9-134.78c-7.78-9.07-14.26-19.44-14.26-31.1,0-25.92,20.74-45.36,46.66-45.36,12.96,0,24.62,3.89,32.4,12.96l138.67,142.56c62.21-63.5,103.68-152.93,103.68-260.5,0-213.84-163.3-358.99-335.67-358.99s-336.96,145.15-336.96,358.99,164.59,358.99,336.96,358.99c55.73,0,110.16-15.55,159.41-42.77Z"/>
    <g>
      <path class="cls-1" d="m1087.05,899.99v-221.4c0-26.1,20.7-47.7,46.8-47.7s47.7,21.6,47.7,47.7v221.4c0,90,51.3,126,109.8,126,86.4,0,124.2-77.4,129.6-116.1v-231.3c0-26.1,21.6-47.7,47.7-47.7s47.7,21.6,47.7,47.7v378.9c0,27-21.6,48.6-47.7,48.6s-47.7-21.6-47.7-48.6v-59.4c-4.5,31.5-58.5,109.8-161.1,109.8-87.3,0-172.8-54.9-172.8-207.9Z"/>
      <path class="cls-1" d="m1624.33,497.69c0-26.1,22.5-47.7,48.6-47.7s48.6,21.6,48.6,47.7-22.5,47.7-48.6,47.7-48.6-21.6-48.6-47.7Zm96.3,181.8v378.9c0,27-21.6,48.6-47.7,48.6s-47.7-21.6-47.7-48.6v-378.9c0-27,21.6-48.6,47.7-48.6s47.7,21.6,47.7,48.6Z"/>
      <path class="cls-1" d="m2224.62,1001.69c0,21.6-15.3,33.3-25.2,43.2-38.7,40.5-89.1,61.2-151.2,61.2-107.1,0-236.7-78.3-236.7-238.5s129.6-239.4,236.7-239.4c62.1,0,112.5,20.7,151.2,61.2,9.9,9.9,25.2,21.6,25.2,43.2s-18.9,36.9-38.7,36.9c-18,0-31.5-9.9-38.7-17.1-24.3-28.8-62.1-41.4-95.4-41.4-75.6,0-145.8,54-145.8,156.6s70.2,155.7,145.8,155.7c33.3,0,71.1-12.6,95.4-41.4,7.2-7.2,20.7-17.1,38.7-17.1,19.8,0,38.7,14.4,38.7,36.9Z"/>
      <path class="cls-1" d="m2723.21,1064.69c0,22.5-18.9,41.4-42.3,41.4-11.7,0-22.5-5.4-29.7-12.6l-178.2-193.5-63,60.3v98.1c0,26.1-21.6,47.7-47.7,47.7s-47.7-21.6-47.7-47.7V506.69c0-26.1,21.6-47.7,47.7-47.7s47.7,21.6,47.7,47.7v341.1l202.5-203.4c8.1-7.2,20.7-13.5,32.4-13.5,24.3,0,43.2,19.8,43.2,43.2,0,11.7-4.5,22.5-11.7,30.6l-144.9,139.5,179.1,190.8c7.2,7.2,12.6,18,12.6,29.7Z"/>
      <path class="cls-1" d="m3424.28,1016.09c23.4,0,43.2,18.9,43.2,42.3s-19.8,43.2-43.2,43.2h-320.4c-30.6,0-53.1-22.5-53.1-53.1v-523.8c0-30.6,22.5-53.1,53.1-53.1h311.4c23.4,0,43.2,18.9,43.2,42.3s-19.8,43.2-43.2,43.2h-267.3v187.2h183.6c23.4,0,42.3,18.9,42.3,40.5s-18.9,41.4-42.3,41.4h-183.6v189.9h276.3Z"/>
      <path class="cls-1" d="m3884.19,714.59v-36c0-26.1,21.6-47.7,47.7-47.7s48.6,21.6,48.6,47.7v380.7c0,26.1-22.5,47.7-48.6,47.7s-47.7-21.6-47.7-47.7v-48.6c-6.3,40.5-62.1,97.2-147.6,97.2-99.9,0-219.6-77.4-219.6-240.3s120.6-239.4,219.6-239.4c66.6,0,124.2,34.2,147.6,86.4Zm4.5,153c0-112.5-75.6-157.5-136.8-157.5-65.7,0-139.5,51.3-139.5,157.5s73.8,158.4,139.5,158.4c61.2,0,136.8-46.8,136.8-158.4Z"/>
      <path class="cls-1" d="m4393.57,698.39c5.4,8.1,12.6,18,12.6,33.3,0,22.5-17.1,36-38.7,36-14.4,0-27.9-6.3-41.4-24.3-18-22.5-43.2-37.8-80.1-37.8-45,0-72,22.5-72,54.9,0,22.5,12.6,44.1,60.3,57.6l55.8,15.3c76.5,20.7,134.1,54.9,134.1,130.5,0,94.5-89.1,142.2-182.7,142.2-78.3,0-133.2-34.2-156.6-71.1-4.5-6.3-18.9-24.3-18.9-45.9,0-18.9,11.7-38.7,36.9-38.7,20.7,0,31.5,12.6,40.5,26.1,22.5,37.8,59.4,50.4,98.1,50.4,52.2,0,88.2-21.6,88.2-57.6,0-27-18.9-46.8-63.9-59.4l-60.3-16.2c-87.3-24.3-125.1-71.1-125.1-132.3,0-84.6,76.5-133.2,163.8-133.2,64.8,0,120.6,26.1,149.4,70.2Z"/>
      <path class="cls-1" d="m4922.76,674.09c0,9-2.7,15.3-5.4,21.6l-240.3,549c-9.9,22.5-27,32.4-45,32.4-25.2,0-42.3-19.8-42.3-43.2,0-9,2.7-15.3,5.4-21.6l55.8-128.7-171.9-387.9c-2.7-6.3-5.4-12.6-5.4-21.6,0-23.4,18.9-43.2,44.1-43.2,18,0,35.1,9.9,45,32.4l135,314.1,135.9-314.1c9.9-22.5,27-32.4,45-32.4,25.2,0,44.1,19.8,44.1,43.2Z"/>
      <path class="cls-1" d="m5353.84,519.29v537.3c0,27-22.5,50.4-48.6,50.4-27.9,0-50.4-23.4-50.4-50.4v-537.3c0-27,22.5-50.4,50.4-50.4,26.1,0,48.6,23.4,48.6,50.4Z"/>
      <path class="cls-1" d="m5891.14,836.99v221.4c0,26.1-20.7,47.7-46.8,47.7s-47.7-21.6-47.7-47.7v-221.4c0-90-51.3-126-109.8-126-86.4,0-124.2,77.4-129.6,116.1v231.3c0,26.1-21.6,47.7-47.7,47.7s-47.7-21.6-47.7-47.7v-378.9c0-27,21.6-48.6,47.7-48.6s47.7,21.6,47.7,48.6v59.4c4.5-31.5,58.5-109.8,161.1-109.8,87.3,0,172.8,54.9,172.8,207.9Z"/>
      <path class="cls-1" d="m6304.22,698.39c5.4,8.1,12.6,18,12.6,33.3,0,22.5-17.1,36-38.7,36-14.4,0-27.9-6.3-41.4-24.3-18-22.5-43.2-37.8-80.1-37.8-45,0-72,22.5-72,54.9,0,22.5,12.6,44.1,60.3,57.6l55.8,15.3c76.5,20.7,134.1,54.9,134.1,130.5,0,94.5-89.1,142.2-182.7,142.2-78.3,0-133.2-34.2-156.6-71.1-4.5-6.3-18.9-24.3-18.9-45.9,0-18.9,11.7-38.7,36.9-38.7,20.7,0,31.5,12.6,40.5,26.1,22.5,37.8,59.4,50.4,98.1,50.4,52.2,0,88.2-21.6,88.2-57.6,0-27-18.9-46.8-63.9-59.4l-60.3-16.2c-87.3-24.3-125.1-71.1-125.1-132.3,0-84.6,76.5-133.2,163.8-133.2,64.8,0,120.6,26.1,149.4,70.2Z"/>
      <path class="cls-1" d="m6648.01,1052.99c0,36.9-42.3,53.1-92.7,53.1-54,0-107.1-18.9-107.1-122.4v-273.6h-34.2c-23.4,0-38.7-15.3-38.7-38.7s15.3-37.8,38.7-37.8h34.2v-70.2c0-25.2,21.6-46.8,46.8-46.8s47.7,21.6,47.7,46.8v70.2h65.7c23.4,0,39.6,15.3,39.6,37.8s-16.2,38.7-39.6,38.7h-65.7v274.5c0,27,10.8,39.6,31.5,39.6,11.7,0,25.2-3.6,35.1-4.5,22.5-3.6,38.7,10.8,38.7,33.3Z"/>
      <path class="cls-1" d="m7069.21,714.59v-36c0-26.1,21.6-47.7,47.7-47.7s48.6,21.6,48.6,47.7v380.7c0,26.1-22.5,47.7-48.6,47.7s-47.7-21.6-47.7-47.7v-48.6c-6.3,40.5-62.1,97.2-147.6,97.2-99.9,0-219.6-77.4-219.6-240.3s120.6-239.4,219.6-239.4c66.6,0,124.2,34.2,147.6,86.4Zm4.5,153c0-112.5-75.6-157.5-136.8-157.5-65.7,0-139.5,51.3-139.5,157.5s73.8,158.4,139.5,158.4c61.2,0,136.8-46.8,136.8-158.4Z"/>
      <path class="cls-1" d="m7316.71,1106.09c-26.1,0-47.7-21.6-47.7-47.7V506.69c0-26.1,21.6-47.7,47.7-47.7s47.7,21.6,47.7,47.7v551.7c0,26.1-21.6,47.7-47.7,47.7Z"/>
      <path class="cls-1" d="m7520.11,1106.09c-26.1,0-47.7-21.6-47.7-47.7V506.69c0-26.1,21.6-47.7,47.7-47.7s47.7,21.6,47.7,47.7v551.7c0,26.1-21.6,47.7-47.7,47.7Z"/>
      <path class="cls-1" d="m8116.8,852.29c0,36.9-20.7,51.3-59.4,51.3l-301.5-.9c9.9,83.7,75.6,125.1,147.6,125.1,36.9,0,62.1-9,90-26.1,15.3-8.1,25.2-14.4,37.8-14.4,20.7,0,33.3,14.4,33.3,34.2,0,11.7-4.5,24.3-24.3,40.5-34.2,27.9-83.7,44.1-140.4,44.1-117,0-242.1-74.7-242.1-237.6s130.5-240.3,233.1-240.3,225.9,81,225.9,224.1Zm-360.9-18h268.2c-8.1-85.5-72.9-123.3-133.2-123.3s-126.9,37.8-135,123.3Z"/>
      <path class="cls-1" d="m8500.19,673.19c0,27-20.7,45-61.2,45-79.2,0-130.5,61.2-136.8,108.9v231.3c0,26.1-21.6,47.7-47.7,47.7s-47.7-21.6-47.7-47.7v-378.9c0-27,21.6-48.6,47.7-48.6s47.7,21.6,47.7,48.6v59.4c4.5-31.5,61.2-109.8,149.4-109.8,31.5,0,48.6,19.8,48.6,44.1Z"/>
    </g>
  </g>
  <g id="Layer_4" data-name="Layer 4">
    <g>
      <path class="cls-1" d="m244.8,641.92v-98.4c0-11.6,9.2-21.2,20.8-21.2s21.2,9.6,21.2,21.2v98.4c0,40,22.8,56,48.8,56,38.4,0,55.2-34.4,57.6-51.6v-102.8c0-11.6,9.6-21.2,21.2-21.2s21.2,9.6,21.2,21.2v168.4c0,12-9.6,21.6-21.2,21.6s-21.2-9.6-21.2-21.6v-26.4c-2,14-26,48.8-71.6,48.8-38.8,0-76.8-24.4-76.8-92.4Z"/>
      <path class="cls-1" d="m649.59,693.52c10.4,0,19.2,8.4,19.2,18.8s-8.8,19.2-19.2,19.2h-142.4c-13.6,0-23.6-10-23.6-23.6v-232.8c0-13.6,10-23.6,23.6-23.6h138.4c10.4,0,19.2,8.4,19.2,18.8s-8.8,19.2-19.2,19.2h-118.8v83.2h81.6c10.4,0,18.8,8.4,18.8,18s-8.4,18.4-18.8,18.4h-81.6v84.4h122.8Z"/>
      <path class="cls-1" d="m750.8,472.72v238.8c0,12-10,22.4-21.6,22.4-12.4,0-22.4-10.4-22.4-22.4v-238.8c0-12,10-22.4,22.4-22.4,11.6,0,21.6,10.4,21.6,22.4Z"/>
    </g>
  </g>
</svg>